/* XPM */
static char *_53410a2bd8a4a7fd64759d8d672bb60ELEub3gLjnc8TXO8[] = {
/* columns rows colors chars-per-pixel */
"36 36 65 1 ",
"  c #323234",
". c #6A1C30",
"X c #444444",
"o c #545456",
"O c #5E5A60",
"+ c #5F5B61",
"@ c #5F5B62",
"# c #605C62",
"$ c #615D62",
"% c #615D63",
"& c #615E64",
"* c #625E64",
"= c #635F65",
"- c #636066",
"; c #656167",
": c #656268",
"> c #67636A",
", c #676468",
"< c #676469",
"1 c #686569",
"2 c #68646B",
"3 c #6B676E",
"4 c #6C686F",
"5 c #6D6D6E",
"6 c #6F6B72",
"7 c #6F6B73",
"8 c #6F6C73",
"9 c #706C72",
"0 c #706C73",
"q c #706C74",
"w c #726E75",
"e c #726F75",
"r c #737076",
"t c #992636",
"y c #987B31",
"u c #D01848",
"i c #FC1848",
"p c #E1B300",
"a c #FFD600",
"s c #FFFC00",
"d c #CCAD47",
"f c #E6D86C",
"g c #7D7A82",
"h c #7E7A83",
"j c #7F7C84",
"k c #807D85",
"l c #807D86",
"z c #817E87",
"x c #827F88",
"c c #838088",
"v c #848089",
"b c #84818A",
"n c #85828A",
"m c #85828B",
"M c #86838C",
"N c #8A898B",
"B c #8A8A8B",
"V c #8B8A8B",
"C c #8C8B8D",
"Z c #8F8E8F",
"A c gray56",
"S c #8F8F90",
"D c #908F90",
"F c #909090",
"G c #F7F2A6",
/* pixels */
"MMM+FMMMMMc&SMMMMMc;SMMMMMz1AMMMMMlo",
"MMM+FMMMMMm&SMMMMMc-SmMMMMz<AmMMMMl#",
"www3rww>www3.........w83www3www>ww03",
"Vxxxcxx+Vc..ttuuuuutt..;Vxzxxxg>Nxxx",
"SMMmMMm$F.tuuiiiiiiiuut.FMMmMMz<AMMM",
"SMMmMMm$Am..tuuuiiiiiuut.MMmMMz1AMMM",
"rww>www3rww...ttuiiiiiuut.6>www4wwq>",
"ccx+Vccxccz.ppuiiiiiiiupp.j>Vcxcxxj$",
"MMM+FmMMM...paaasssssaaap...AMMMMMzo",
"MMM+FmM..tttuuasssssssauuttt..MMMMz#",
"www3ww.tttuuiiiiiiiiiiiiiuuttt.>wq03",
"Vccxc.ttuuuiiiiiiiiiiiiiiiuuutt.Cxxx",
"SMMMMM..ttuuuiiiiiiiiiiiuuutt..1AMMM",
"SMmmMMm$....ttuuuuuuuuutt....mz1DMMM",
"ww8>8884ydff.............ffdy006wqq=",
"ccc+Cmmcydfffffffffffffffffdymxxxxl#",
"MMm+FmmydffGfffffffffffffGffdyMMMMlo",
"Mmm#FmmydfffGfffffffffffGfffdyMMMMl#",
"9w94r99ydfdfffGGfGGGfGGfffdfdy6;qq03",
"AmmcmmmydfdffffffGGGffffffdfdyj>CMxx",
"AMMMmmmydddffdfffffffffdffdddyz>AMMM",
"AmMMmmmyddddfdffdfffdffdfddddyz1DMMM",
"660$999ydddddddfddfddfdddddddy84q04=",
"mmM+FmmmydyddydddddddddyddydymmmxMx&",
"mmM+SMMM yXyyyddydddyddyyyXy mmmMMxo",
"MmM+FMM XXXoo5yy5yyy5yy5ooXXX mmMMz+",
"6663666 XXXoo5X5555555X5ooXXX 4;63w4",
"FmmmMMc XXooo5X5555555X5oooXX c1Sxmx",
"SMMMMMc XXoo55o5555555o55ooXX z,SMMM",
"SMMMMMM XXoo5555555555555ooXX z1DMMM",
"669+666 XXoo5555555555555ooXX 44643+",
"cMz+Ammm Xooo55555555555oooX mmmMzz+",
"MMM+SMMMM  XXoo8555555ooXX  AMMMMMz+",
"MMM+SMMMMMc   XXXXXXXXX   z<AmMMMMzo",
"4664646+6464464+6449463$4646643$46w3",
"SMMMMMc$AMmMmmc-FMMmMMz;AMmmMMz1DMMM"
};
