/* XPM */
static char *b2ff69f1f5464901ded815e8d390543ctRDaMgUJNH79biAK[] = {
/* columns rows colors chars-per-pixel */
"36 36 51 1 ",
"  c #3B2027",
". c #7D3833",
"X c #5E5A60",
"o c #5F5B61",
"O c #5F5B62",
"+ c #605D62",
"@ c #605C63",
"# c #635F64",
"$ c #625E65",
"% c #635F65",
"& c #636066",
"* c #666267",
"= c #67636A",
"- c #676468",
"; c #676469",
": c #686569",
"> c #68646B",
", c #6B676E",
"< c #6C686F",
"1 c #6C696F",
"2 c #6D6970",
"3 c #6F6B72",
"4 c #6F6B73",
"5 c #6F6C73",
"6 c #706C73",
"7 c #716D73",
"8 c #706C74",
"9 c #726E75",
"0 c #737076",
"q c #747176",
"w c #AB5130",
"e c #EC8C32",
"r c #7E7A83",
"t c #7E7B84",
"y c #7F7C84",
"u c #7F7C85",
"i c #807C85",
"p c #817E87",
"a c #827F88",
"s c #838088",
"d c #84818A",
"f c #85828B",
"g c #86838C",
"h c #8B8A8B",
"j c #8B8B8C",
"k c #8C8B8C",
"l c #8F8E8F",
"z c gray56",
"x c #8F8F90",
"c c #908F90",
"v c #909090",
/* pixels */
"gggovgggggs$zgggggs&xgggggp>zffgggto",
"gggovgggggf$xgggggs*xgggggp;zfgggguo",
"999,099=999,099;999,q96>999,q99>993,",
"haaasaaohaaasau$jaaaspu*hapaasr*jaas",
"vggfggf+zgggggs&xggggga*zgggggp>zggg",
"vggfggf+zfgggff&xgggggp*zggfggp>xggg",
"099=999,099;699,995;995,996>066<993$",
"sapohpfasspohfssssu&jaafpsr*kpfsaato",
"gggovgggggf+xgggggs&xgggggp;zfggggto",
"gggovgggggf$xgggggs$xggfggp=zfggggao",
"999,966=996<996*9953995;996,996=993,",
"jssafap+ksssssp$jassasy*kpsfspp*jsss",
"xgggggf+zggg            zgggfgp>zggg",
"vgggggf+cgg .w.w.ww.w.w. gggggp:zfgg",
"995&993,93 e.e.e.ee.e.e.e 5*666<953$",
"sssokssfsf e.eweweewewe.e i*hfsfssro",
"ggfXlggggg eweweweewewewe p*zgggggpo",
"gff+zggfgg eweweweewewewe p=zfgggguo",
"666<666$93 eeeeeeeeeeeeee 33633*666<",
"zgsfggf+kf e.....ee.....e gafft=hgss",
"zgggggf+cg .wwwwweewwwww. ggfgp>zffg",
"zfggfff+cg .wwwwwwwwwwww. ggfgs>zfgg",
"666+<63<63 .wwwwwwwwwwww. <*6161336o",
"fff+zfffff ewwwwwwwwwwwwe s*hfffffro",
"fff+lggggg ee..........ee p=zffgggpo",
"fffXcfggff                p;zfggggiX",
"666<366+336<63<$6<3<66<%516<35<*666<",
"lffffff+zfffffp$zfggfpp*zsfgffp*hfff",
"lgfffgf+lgggggg$zgggggs*zgggfgp>hggg",
"vffffff+zfgggfa$zfgggfp*zgggffp:lfgg",
"663@666<633@633,333@<66<66<+616<<6<+",
"fffXzfffffp+zffffga$zfffgps>hfffffi+",
"fgg+lgggggf%lggggga*lgggggp>lgggggp+",
"fff@zfggggs+lggggfa*cgffggp>zgggggpX",
"<6<<<33+36<3<9<+6<<<63,@6<<<<<<+<<<<",
"lggfgff+zffgfga%vgggffp*zgggffp>zggf"
};
