/* XPM */
static char *_ab16d52a4bf45c796d68c9648c20a23PAEdkgPNtSEz2Vdh[] = {
/* columns rows colors chars-per-pixel */
"36 36 53 1 ",
"  c #5E5A60",
". c #5F5B61",
"X c #5F5B62",
"o c #605D62",
"O c #605C63",
"+ c #625E63",
"@ c #625E65",
"# c #635F65",
"$ c #636066",
"% c #646166",
"& c #656168",
"* c #67636A",
"= c #676468",
"- c #676469",
"; c #686569",
": c #68646B",
"> c #6B676E",
", c #6C686F",
"< c #6D6970",
"1 c #6E6A71",
"2 c #6F6B72",
"3 c #6F6B73",
"4 c #6F6C73",
"5 c #706C73",
"6 c #716D73",
"7 c #706C74",
"8 c #726E75",
"9 c #737076",
"0 c #747176",
"q c #AB5130",
"w c #EC8C32",
"e c #FFCE00",
"r c #7D7A82",
"t c #7E7B83",
"y c #7F7B84",
"u c #7F7C85",
"i c #807C85",
"p c #817E87",
"a c #827E87",
"s c #827F88",
"d c #838088",
"f c #85828B",
"g c #86838C",
"h c #8B8A8B",
"j c #8B8B8C",
"k c #8C8B8C",
"l c #8D8C8D",
"z c #8F8E8F",
"x c gray56",
"c c #8F8F90",
"v c #908F90",
"b c #909090",
"n c #FFEE83",
/* pixels */
"ggg.bgggggd@xgggggd$cgggggp:xffgggy.",
"ggg.bgggggf@cgggggd%vgggggp-xfggggu.",
"888>988*888>988-888,085:888>088:884>",
"hsssdss.hsssdsu@jssssdt%hspsppp%jsss",
"bggfggfocgggggd$cgggggs*bggffgp:xfgg",
"bggfggfocgggggd$cggfggd%xggfggd:bggg",
"988*888>988*888>884*888,885:855,885%",
"dsp.hpfsdduojdddddu%jspdfpi%kpfdssr.",
"ggg.bgggggfocgggggs%vgggffp=xfggggi.",
"ggg.bgggggf@cggggff%vggggfp=xfgggfu.",
"888>855*885,882*qqq,885%855,855=885,",
"jddsfspokdddddqqnnnqqsp%kfpfgss%hfaa",
"cgggggfoxggggqnneeennqd-bgggfgp:xggg",
"bgggggfovgggqneeeneeenq$xgggffp:xggg",
"884$882>822qneeeneweeewq552%555,855#",
"ddd.kddfdfsqneeeneweeewqdfp%kfdfdar ",
"ggfobgggggqneeneneweneewqgp%bfggggi ",
"ggf bggggfqneneeneweewewqgp*xfggggpO",
"555,855o55qneeweneweweewq222522%855,",
"xgfafffokffqeeeeneweeewqxddgffy:kasf",
"xfggggfovggqneeeneweeewqbgggfgp:xfgg",
"xfggggfovgggqneeeweeewq%bgggfgd:xsgg",
"555o7,5,552@5qwweeewwq2,55>o5,5,555O",
"fffokfffffsoxfqqwwwqqfffffd%bfffffr ",
"fffOxgggfgs@xgggqqq#vgggffp=xffggga ",
"gffOxgggfff@vggggff@vggggfp:xfgggsiO",
"555,155O525,52,@522,55,#552,15,#5551",
"xfsffffOxfffffp@xfffffs%xfpgffp:vgss",
"xgfffgfoxfggfff@xgggfga=bgggfgp=xggg",
"xgfffgfoxfggfff@xgggffa%xggffgd=xggg",
"5,5O155,522O555>25,O,55,55,o155,,,,O",
"fgf xfffffpoxffgsgs@xfffffp%xfffgsiO",
"gggOxgggggfOxggggga%xggggga=lgggggsO",
"ggg xfggggfoxggggsg%xgggggs=xgggggiO",
",5,,,5,o,5,5,,,O,5,555,o,5<,,,,#,,,,",
"xggggggoxgggggg+xgggsga#lgggggp=xggg"
};
