/* XPM */
static char *_170ab363fbf4feed20057d43ba4b142HVbqN3wUuqn7r36r[] = {
/* columns rows colors chars-per-pixel */
"36 36 4 1 ",
"  c #5E5A60",
". c #6D6970",
"X c #86838C",
"o c #909090",
/* pixels */
"XXX oXXXXXX oXXXXXX oXXXXXX oXXXXXX ",
"XXX oXXXXXX oXXXXXX oXXXXXX oXXXXXX ",
"....... ....... ....... ....... ....",
"oXXXXXX oXXXXXX oXXXXXX oXXXXXX oXXX",
"oXXXXXX oXXXXXX oXXXXXX oXXXXXX oXXX",
"oXXXXXX oXXXXXX oXXXXXX oXXXXXX oXXX",
"... ....... ....... ....... ....... ",
"XXX oXXXXXX oXXXXXX oXXXXXX oXXXXXX ",
"XXX oXXXXXX oXXXXXX oXXXXXX oXXXXXX ",
"XXX oXXXXXX oXXXXXX oXXXXXX oXXXXXX ",
"....... ....... ....... ....... ....",
"oXXXXXX oXXXXXX oXXXXXX oXXXXXX oXXX",
"oXXXXXX oXXXXXX oXXXXXX oXXXXXX oXXX",
"oXXXXXX oXXXXXX oXXXXXX oXXXXXX oXXX",
"... ....... ....... ....... ....... ",
"XXX oXXXXXX oXXXXXX oXXXXXX oXXXXXX ",
"XXX oXXXXXX oXXXXXX oXXXXXX oXXXXXX ",
"XXX oXXXXXX oXXXXXX oXXXXXX oXXXXXX ",
"....... ....... ....... ....... ....",
"oXXXXXX oXXXXXX oXXXXXX oXXXXXX oXXX",
"oXXXXXX oXXXXXX oXXXXXX oXXXXXX oXXX",
"oXXXXXX oXXXXXX oXXXXXX oXXXXXX oXXX",
"... ....... ....... ....... ....... ",
"XXX oXXXXXX oXXXXXX oXXXXXX oXXXXXX ",
"XXX oXXXXXX oXXXXXX oXXXXXX oXXXXXX ",
"XXX oXXXXXX oXXXXXX oXXXXXX oXXXXXX ",
"....... ....... ....... ....... ....",
"oXXXXXX oXXXXXX oXXXXXX oXXXXXX oXXX",
"oXXXXXX oXXXXXX oXXXXXX oXXXXXX oXXX",
"oXXXXXX oXXXXXX oXXXXXX oXXXXXX oXXX",
"... ....... ....... ....... ....... ",
"XXX oXXXXXX oXXXXXX oXXXXXX oXXXXXX ",
"XXX oXXXXXX oXXXXXX oXXXXXX oXXXXXX ",
"XXX oXXXXXX oXXXXXX oXXXXXX oXXXXXX ",
"....... ....... ....... ....... ....",
"oXXXXXX oXXXXXX oXXXXXX oXXXXXX oXXX"
};
