/* XPM */
static char *f0389051696d429edd03886e5c07add0bhNqAYq2t4ekQl9J[] = {
/* columns rows colors chars-per-pixel */
"36 36 77 1 ",
"  c #2E1E22",
". c #323234",
"X c #5C2E00",
"o c #6A1C30",
"O c #534721",
"+ c #444444",
"@ c #545456",
"# c #77584A",
"$ c #7A6843",
"% c #5F5B61",
"& c #5F5B62",
"* c #605C62",
"= c #615D62",
"- c #615E64",
"; c #636066",
": c #656167",
"> c #656268",
", c #67636A",
"< c #676468",
"1 c #676469",
"2 c #686569",
"3 c #68656A",
"4 c #68646B",
"5 c #6B676E",
"6 c #6C686F",
"7 c #6D6D6E",
"8 c #6D6970",
"9 c #6F6B72",
"0 c #6F6B73",
"q c #6F6C73",
"w c #706C72",
"e c #706C73",
"r c #706C74",
"t c #726E75",
"y c #737076",
"u c #747176",
"i c #767678",
"p c #992636",
"a c #964F00",
"s c #987B31",
"d c #D01848",
"f c #FC1848",
"g c #8B5E4A",
"h c #A77E5D",
"j c #E1B300",
"k c #FFD600",
"l c #FFFC00",
"z c #CCAD47",
"x c #CA9E73",
"c c #E6D86C",
"v c #7D7A82",
"b c #7F7C85",
"n c #817E87",
"m c #827F88",
"M c #838088",
"N c #848089",
"B c #84818A",
"V c #85828B",
"C c #86838C",
"Z c #8A8A8B",
"A c #8B8A8B",
"S c #8C8B8D",
"D c #8C8C8D",
"F c gray56",
"G c #928A8C",
"H c #8F8F90",
"J c #908F90",
"K c #909090",
"L c #B7B7BB",
"P c #DDBD9C",
"I c #EEDAB3",
"U c #F7F2A6",
"Y c gray85",
"T c #D9D9DD",
"R c #FDF0C5",
"E c gray95",
"W c white",
/* pixels */
"CCC%KCCCCCM-JCCCCCm:HCCCCCn<FCCCCCb%",
"CCC%KCCCCCV-HCCCCCM;KCCCCCn,FVCCCCb%",
"ttt5ytt,ttt5utt,ooooooooott6ytt,tt05",
"AmmmMmm%Ammmmmooppddpppppoomnmv,AMnM",
"HCCVCCV=KCCCCopddfffdpoopppoCCn2FCCC",
"HCCVCCV=FVCCopddfffffddpoooVCCn2HVCC",
"ytt,ttt5yttopddfffffffddpot,ttt6tt0,",
"MMm%AMMmMMnojjdfffffffdjjov:AVmmMnv%",
"CCC%KVCCCooojkkklllllkkkjoooGCCCCCb%",
"CCC%KVCoopppddklllllllkddpppooCCCCb%",
"ttt5ttopppddfffffffffffffddpppo,ttq5",
"AMMmMoppdddffffffdddffffffdddppoAMMM",
"HCCCCCooppddddpooooooopddddppoo2HCCC",
"HCVVCCV=ooooooozccccczoooooooVm2HVCC",
"ttq,qqq6$PcczOzOzccczOzOzccP$q00tqq=",
"MMM%DVVM$PccOY TRzczRT YOccP$VMnMMv%",
"CCS@KCVsz$cUOE GRRzRRG EOUc$zsCCCCn%",
"CCV%KVVszscUIWXXRRRRRXXWIUcszsCCVVM%",
"tt06wtwszsccPIaaRRRRRaaIPccszs0;qq06",
"SVMVVVVszscc$PIRRRRRRRIP$ccszsb<AVMV",
"JCCCVVVszszc.$xPIIIIIPx$.czszsn<FVCC",
"JCCCVVVszszcc+$$$$$$$$$+cczszsM<FVCC",
"00t=000s.iTzc@@@7III7@@@czTi.sq0000%",
"VCC%FVVViLTWzc@7TkIkT7@czWTLiVVMVVv%",
"VVV%KCCCiTWTiLTWWTlTWWTLiTWTiCCCCCn%",
"VVV%KCCOjkWTiiLLLTTTLLLiiTWkjOCCCCb%",
"qw00000$RRlLipLTWW@WWTLpiLlRR$6-06q6",
"GVVMMVM$RIkL+d@d@f7f@d@d+LkIR$n2HMVV",
"KCCCCCV.$$jj+d@f7f7f7f@d+jj$$.n<HVVC",
"KCCVCCV.77OOop+d@d+d@d+poOO77.m2HMCC",
"w00%000.77.++oPPPoooPPPo++.77.05qq5%",
"VMM%FCMV.7...Ogg#O.O#ggO...7.VVVCMb%",
"VCC=FVCCC.V=KOhhgOMOghhOCCm.HCCCCCb%",
"VCC%KVCCCCV=KCOOOCM;OOOMCCb<GVCCCCb%",
"6000600%w6060w0@q806q85%088q055%5005",
"FVVVVVV%FCVCVCV,GVVVVCM,FCCCCCm<FCCC"
};
