/* XPM */
static char *ee73cadd2deb44a0d8c5fa2f915044bbzVeBJI9NVu7MhPh2[] = {
/* columns rows colors chars-per-pixel */
"36 36 80 1 ",
"  c #2E1E22",
". c #323234",
"X c #5C2E00",
"o c #6A1C30",
"O c #534721",
"+ c #444444",
"@ c #545456",
"# c #565657",
"$ c #77584A",
"% c #7A6843",
"& c #5F5B61",
"* c #5F5B62",
"= c #605C62",
"- c #605D62",
"; c #625E63",
": c #625E65",
"> c #635F65",
", c #636066",
"< c #656167",
"1 c #67636A",
"2 c #676468",
"3 c #686569",
"4 c #68646B",
"5 c #6B676D",
"6 c #6B676E",
"7 c #6C686F",
"8 c #6C696F",
"9 c #6D6D6E",
"0 c #6D6970",
"q c #6F6B72",
"w c #6F6B73",
"e c #6F6C73",
"r c #706C72",
"t c #706C73",
"y c #716E75",
"u c #726E75",
"i c #737076",
"p c #747076",
"a c #767678",
"s c #992636",
"d c #964F00",
"f c #987B31",
"g c #D01848",
"h c #FC1848",
"j c #8B5E4A",
"k c #A77E5D",
"l c #E1B300",
"z c #FFD600",
"x c #FFFC00",
"c c #CCAD47",
"v c #CA9E73",
"b c #E6D86C",
"n c #7D7A82",
"m c #7E7A83",
"M c #7F7C84",
"N c #817E87",
"B c #827F88",
"V c #838088",
"C c #84818A",
"Z c #85828B",
"A c #86838C",
"S c #8B8A8B",
"D c #8B8B8C",
"F c #8C8B8D",
"G c #8D8D8E",
"H c gray56",
"J c #928A8C",
"K c #8F8F90",
"L c #908F90",
"P c #909090",
"I c #B8A685",
"U c #B7B7BB",
"Y c #DDBD9C",
"T c #EEDAB3",
"R c #F7F2A6",
"E c gray85",
"W c #D9D9DD",
"Q c #FDF0C5",
"! c gray95",
"~ c white",
/* pixels */
"AAA&PAAAAAZ:PAAAAAV,PAAAAAB1GAAAAAn&",
"AAA&PAAAAAV:PAZZAAV,PAAAAAB1GAAAAAB&",
"uuu6iuu1eie0iie6ooooooooouu0iuu1uuw6",
"SBBBVBB&DBVVVMoossgggggssooBBBn1DBBB",
"PAAZAAZ-JAAAAosgghhhhhhhggsoAAN3KAAA",
"PAAZAAZ-PZAAosgghhhhhgggsooAAAN3KAAA",
"iuu1uuu6iuuosgghhhhhgssooot1uuu6iue:",
"VBN&SNZBVVNollghhhhhhhgllon1SVVBBBn&",
"AAA&PAAAAooolzzzxxxxxzzzloooGAAAAAn&",
"AAA&PAAoosssggzxxxxxxxzggsssooAAAAB&",
"uuu6utossghhhhhhhhhhhhhhhggssso1uue6",
"DVVBBZNossghhhhhhhhhhhhhhhgggssoDVVV",
"KAAAAAZ-oosgghhhhhhhhhhhgggssoo3KAAA",
"PAAAAAZ-fboossgggggggggssooooZM7KAAA",
"uue,utt7fbbbooooooooooooobbcfte7ue0:",
"VVV&FVZVfcbbcQW EOQbbcQbbbbcfZVVVVm&",
"AAA@PAAAAfbcQQJ !OQRbcQbbbRbcfAAAAB&",
"AAA-PAAZAZ%YQQXX~QQRbcTbRRbbbfAAAAM&",
"uut7ttt-ut%ITQddQQQbbc%bbRbbbcf<ee00",
"GZZZZZZ-GVZ%YTQQQQQbbcvcbbbbbbf2DAVV",
"PAAAZAZ-PAAA%vYYTTbbbvvcbbcbbbf3KAAA",
"PAAAZZZ-LAAAA%%%%%bbc..fcbcbbcf3KAAA",
"ttt;te07u00:0%T@99bc99@fcbccbcf0we0*",
"ZZZ-GZAZZZZ:%Tz~9bc@WWU@fcfcccfZAAM&",
"ZZA&PAAAAAV:alW~~~WU~~W9@f.fcfAAAAM&",
"AAA&PAAAAAZ:GaUUWWUaW~~9e+.ffAAAAAM&",
"ttq7ttt=e7e7toUW~~WOxz~99@.7ee7:e0e0",
"JZVZZZN=HAVAos@h@h@%QQz99@+.VZN3KVVA",
"LAAAZAA=PAAAos#g@h#%QQl999+.ZAN3FAAA",
"LAAAZZA-HZAAAo#s@g#g%llo99+.AAN3KAAA",
"ttu=tttte00&u0o@sYTYvOO.99+.t0t7e06&",
"ZBA#GZZNZZZ<JAAAOjkj$O..@9+.GZZZAVM&",
"AAA=LAAAAAZ-LAAAOkkj$OA.@9.2KAAAAAM&",
"AAA=LAAAAAZ:JAAAAOOOOAAA..B2JAAAAAM&",
"t66t6t7=60000e0&0000007&0000000-0000",
"GAAZAAA-LAAAAAV,PAAAAAV<GAAAAAB2KAAA"
};
