/* XPM */
static char *e49e42861a744c7bfe07ed3f66f5663d8GQxG5WGmDHrZgua[] = {
/* columns rows colors chars-per-pixel */
"36 36 63 1 ",
"  c #3B2027",
". c #7D3833",
"X c #781D4F",
"o c #2F5753",
"O c #3B7D4F",
"+ c #5E5A60",
"@ c #5F5B61",
"# c #5F5B62",
"$ c #605D62",
"% c #605C63",
"& c #625E64",
"* c #625E65",
"= c #635F65",
"- c #636066",
"; c #646166",
": c #656168",
"> c #67636A",
", c #676468",
"< c #676469",
"1 c #686569",
"2 c #68646B",
"3 c #6B676E",
"4 c #6C686F",
"5 c #6D6970",
"6 c #6E6A71",
"7 c #6F6B72",
"8 c #6F6C73",
"9 c #706C73",
"0 c #716D73",
"q c #716D75",
"w c #726E75",
"e c #726F75",
"r c #737076",
"t c #747176",
"y c #AB5130",
"u c #E64539",
"i c #FF5277",
"p c #63AB3F",
"a c #EC8C32",
"s c #FFCE00",
"d c #4C6885",
"f c #7D7A82",
"g c #7E7B83",
"h c #7F7C85",
"j c #807D85",
"k c #807D86",
"l c #817E87",
"z c #827E87",
"x c #827F88",
"c c #4FA4B8",
"v c #838088",
"b c #85828B",
"n c #86838C",
"m c #8B8A8B",
"M c #8B8B8C",
"N c #8C8B8C",
"B c #8F8E8F",
"V c gray56",
"C c #8F8F90",
"Z c #908F90",
"A c #909090",
"S c #FFEE83",
"D c #92E8C0",
/* pixels */
"nnn@Annnnnx=Vnnnnnx=Znnnnnx,Znnnnnk%",
"nnn@Annnnnb=Znnnnnx=Znnnnnk,Zxnnnnk+",
"www3rww>eee3eee,eee5eeq,eww3wwe2eq93",
"mxxxvxx@mxxxxxk*Nxxxxxg>Nxxxxxl=mxxx",
"Annbnnb$Vnnnnbv=Znnnnnx,Znnnnnx,Vnnn",
"Annbnnb$Vbnnnbb;Znnnnnx=Znnnnnx,Vnnn",
"rww>www3tww,9ew3qeq,qww3wq9,w9w50q9=",
"vxl@mlbxxxl$mblbxxk=Nxxxxxl=mbxxxxj+",
"nnn@Annnnnb$Vbnnnnx;Vnnnnnl,Vnnnnnk%",
"nnn@Annnnnb*Vbnnnbb;Znnnnnx,Vnnnnnk+",
"www3w99>9w                q3qq9,ee93",
"Mvvxbxl$Nx aaaaaaaaaaaaaa lbxxg,mxxx",
"Cnnnnnb$An ayyyy.aa.yyyya nnnnx,Vnnn",
"Annnnnb$Zn ay..........ya nnnnx,Vnnn",
"ww8-ww73w7 ay..........ya 9=qqq3099%",
"vvv@Nvvbbb ay..apsSa...ya x;mxxnxkj+",
"nnb$Vnnnnn aySapOoSsaa.ya l1Nnnnnnx%",
"nbb+Annbnn .SssaoasaiSsa. l;Znnnnnk+",
"9993999*99 .aSDSssSiuXaS. 79979;0993",
"Abbbbbb$Nb .sDcdasasXasa. bxbbl,mxnx",
"Vbbnnnb$Zn a............a nnbnl1Vnnn",
"Vbnnbbb$Zn .yyyyyyyyyyyy. nnbbl1Vnnn",
"999$799377 .yyyyyyyyyyyy. 3;9993995%",
"bbn$Nbbbbn ayyyyyyyyyyyya l;Nbbnxnk+",
"bbb%Vnnnbb aa..........aa l,Znnnnnj+",
"nbx%Vnnnbb                l=Znnnnnj+",
"9993999%99q3999=9393q93=9979973=9993",
"Vbbbbbb$Vbbbbbk$Nbbbbbx=Vblbbnx,Nxnn",
"Znnnbbb$Vbbnnnn=Znnnnnx2Vnnnbnl,mnnn",
"Annnbbb$Vbnnnbx$Znnnnbx=Znnnbbx,Vnnn",
"943$3993993*9393999%3995993$q3q3993%",
"bnn%Vbbbbbb%Vbbbbnl*Vbbbbll,Vbbbnxj+",
"nnn%Vnnnnnx&Vnnnnnx;Vnnnnnx,Bnnnnnk+",
"nnn+Vnnnnnb%Vnnnnnn=Vnnnnnx,Bnnnnnj+",
"9339393%9939333$3039993%9339393%3939",
"Vnnnnnn$Vbbnnnn=Vnnnxnx=Vnnnnnx,Vnxn"
};
