/* XPM */
static char *fb42896ab6684e7ac35dd1273d06584e7vCtWoijtS2IKQFj[] = {
/* columns rows colors chars-per-pixel */
"36 36 80 1 ",
"  c #2E1E22",
". c #323234",
"X c #5C2E00",
"o c #6A1C30",
"O c #534721",
"+ c #444444",
"@ c #545456",
"# c #565657",
"$ c #77584A",
"% c #7A6843",
"& c #5E5A60",
"* c #5F5B61",
"= c #5F5B62",
"- c #605C62",
"; c #605D62",
": c #615D63",
"> c #615E64",
", c #635F65",
"< c #636066",
"1 c #666267",
"2 c #67636A",
"3 c #676468",
"4 c #686569",
"5 c #68646B",
"6 c #6B676E",
"7 c #6C686F",
"8 c #6D6D6E",
"9 c #6D6970",
"0 c #6F6B73",
"q c #6F6C73",
"w c #706C73",
"e c #706C74",
"r c #716E75",
"t c #726E75",
"y c #737076",
"u c #747076",
"i c #767678",
"p c #992636",
"a c #964F00",
"s c #987B31",
"d c #D01848",
"f c #FC1848",
"g c #8B5E4A",
"h c #A77E5D",
"j c #E1B300",
"k c #FFD600",
"l c #FFFC00",
"z c #CCAD47",
"x c #CA9E73",
"c c #E6D86C",
"v c #7E7A83",
"b c #7E7B83",
"n c #7F7B84",
"m c #807D86",
"M c #817E87",
"N c #827E87",
"B c #827F88",
"V c #838088",
"C c #85828B",
"Z c #86838C",
"A c #8A8A8B",
"S c #8B8A8B",
"D c #8B8B8C",
"F c #8C8B8D",
"G c #8D8C8D",
"H c gray56",
"J c #928A8C",
"K c #8F8F90",
"L c #908F90",
"P c #909090",
"I c #B8A685",
"U c #B7B7BB",
"Y c #DDBD9C",
"T c #EEDAB3",
"R c #F7F2A6",
"E c gray85",
"W c #D9D9DD",
"Q c #FDF0C5",
"! c gray95",
"~ c white",
/* pixels */
"ZZZ*PZZZZZV>KZZZZZV<PZZZZZM2HCZZZZn=",
"ZZZ*PZZZZZZ>KZZZZZV<PZZZZZM2HCZZZZV#",
"ttt6ytt2yqt9oooooooootq2ttq7ytt2ytq7",
"SBBBVBB*SBooppdddddppoo2DVVBVMb2ZBVV",
"PZZCZZC;JopddfffffffddpoKZZZCZM4KZZZ",
"PZZCZZC;PCoopdddfffffddpoZZZZZM4JZZZ",
"ytt2ttt6yttoooppdfffffddpow2ttt7tte5",
"VBM*SMCBVVMojjdfffffffdjjob1SMCMBBb;",
"ZZZ*PZZZZooojkkklllllkkkjoooHZZZZZM@",
"ZZZ*PZZoopppddklllllllkddpppooZZZZM*",
"ttt6wwopppddfffffffffffffffdppo2tew6",
"DVVBCoppdddfffffffffffffffdppob2FBBB",
"KZZZZZooppdddfffffffffffddpooZM4KZZZ",
"PZZZZZC;ooooppdddddddddppoocsCM4LZZZ",
"ttq<tww7szccooooooooooooocccsqq7t9t>",
"VVV*FVCVszccccQzccQOE WQzcczsCVCZBn;",
"ZZZ*KZZszcRcccQzcRQO! JQQzcsHCZZZZB*",
"ZZZ*KZZscccRRcTzcRQQ~XXQQY%2HCZZZZB#",
"qq9q9tszcccRcc%zccQQQaaQTI%9qtw1t996",
"HMCBCZscccccczxzccQQQQQTY%CVCVb2FBZC",
"HZZZZZsccczcczxxcccTTYYx%ZZZCZM4KCCZ",
"PZZZZZszcczczs..zcc%%%%%PZZZCZM4KZZZ",
"t9w>9tszczzczs@88zc88@T%ww6>9wq7009*",
"ZCC*HBszzzszs@UWW@zc8~kT%CM2HCCCVZn*",
"CCZ*KZZszs.s@8W~~UW~~~WjiCM3JZZZZZn*",
"ZCZ*KZZZss.+88~~WiUWWUUiZZM2HZZZZZB*",
"9t08099=9t.@88~klOW~~WUo9e76qq71t096",
"JZBZVCZ>H.+@88kQQ%@f@f@poZZCVCM2FZVZ",
"PZZZZZZ*H.+888jQQ%@f#d#poZZZCZM4LZZZ",
"PZZZZZZ>H.+88ojj%d@d#p#oJZZCZZM4FZZZ",
"t9q;0099t.+88.OOxYTYp@o9wq7;q7w7ww9>",
"ZZZ#KVZZZ.+8@..O$ghgOCCCZVM3HCCCBZM@",
"ZZZ*KZZZZZ.8@.ZO$ghhOZZZZZM2HZZZZZM;",
"ZZZ*KZZZZZC..ZZZOOOOKZCZZZM3JCZZZZV@",
"7960990>9q77997;9799069*77797w7;6tw9",
"JZCZZCZ*KZCZZCM1PZZZZCC1PZZZZZM4KZZZ"
};
