/* XPM */
static char *_b9461919db747e2e001e06965c34105a3nSKxfUYYLggExu[] = {
/* columns rows colors chars-per-pixel */
"36 36 37 1 ",
"  c #282526",
". c #353132",
"X c #403019",
"o c #564229",
"O c #5E4D3D",
"+ c #644E32",
"@ c #755C3F",
"# c #443F41",
"$ c #4F4C51",
"% c #534D50",
"& c #524D51",
"* c #514E53",
"= c #555157",
"- c #59555B",
"; c #5E5A60",
": c #625C60",
"> c #635F66",
", c #646065",
"< c #6A6366",
"1 c #69656C",
"2 c #6B676E",
"3 c #6D6970",
"4 c #716F77",
"5 c #747179",
"6 c #74727A",
"7 c gray48",
"8 c gray49",
"9 c #836949",
"0 c #8F7955",
"q c #9F906B",
"w c #AE9E75",
"e c #7C7A82",
"r c #817E87",
"t c #838383",
"y c #86838C",
"u c #8B8B8B",
"i c #909090",
/* pixels */
"yyy;iyyyyyy;iyyyyyy;iyyyyyy;iyyyyyy;",
"yyy;iyyyyyy;iyyyyyy;iyyyyyy;iyyyyyy;",
"3333333;3333333......33;3333333;3333",
"iyyyyyy;iyyy...#%%%%#   iyyyyyy;iyyy",
"iyyyyyy;iy..<%#    ..###  yyyyy;iyyy",
"iyyyyyy;i.<#. 99000099 .## yyyy;iyyy",
"333;3333.<. 90qqqqqqqq09 .# 3333333;",
"yyy;iyy.<.OOOOOO9O9O9OOOOO.# yyyyyy;",
"yyy;iyy.<O90qqqqwwwqwwwqwq0# yyyyyy;",
"yyy;iyo.<O90qqwwwwwwwwqwqq0# Xyyyyy;",
"333333o.#OOOOO999OO9OOO9OOO. X3;3333",
"iyyyyoo+.#O90qwwwwwwwwwwq0< oXX;iyyy",
"iyyyyo+@+.#%90qqwqwqqwq0<< oooX;iyyy",
"iyyyyo@9@o..#%#999999%<<. XoooX;iyyy",
"333;.+@9+@@+...#%%%%#.. oooXooX 333;",
"yyy;.+99o9009@o..... Xoo+ooXooo yyy;",
"yyy;#+9@o0000@o999@@+Xo+++oXooo yyy;",
"yyy;#+9o@0000o@0999@++X+++ooXoo yyy;",
"3322.%@o90000o@0099@@+X+++ooXo. 2333",
"iyyr.#%o90000o00099@@+X+++ooX#. tyyy",
"iyyyo.$$o@000o00099@@+X+++o.#. X8ryy",
"iyyyo+.#$*$90o00099@@+X+o.##. oX7eyy",
"333;o++...**%$90099@@+.###.. ooX;>3;",
"yyy;8o@o ..$.$%%%%#%#%#..   XoX,4ey;",
"yyy;io+o++  ........ .    ooXoX44ey;",
"yyy;iX++o@@@+ .        ooooXooX44ey;",
"33333:X+o+@@@o+++++oooX++ooXoX%$;133",
"iyyyyyXoX++@@X@@@@@++oX++ooXoX4$tyyy",
"iyyyyyyXoX+++X+@@@+++oX+ooXoX44%uyyy",
"iyyyyyy; Xo++Xo+++++ooXoooX 446-iyyy",
"333;33333 .oooXooooooXooo  $;,13333;",
"yyy;iyyyyy ..oXooooooXo   6=uyyyyyy;",
"yyy;iyyyyyy% .........  1er;iyyyyyy;",
"yyy;iyyyyyy;i5        3ryyy;iyyyyyy;",
"3333333;3333333;3333333;3333333;3333",
"iyyyyyy;iyyyyyy;iyyyyyy;iyyyyyy;iyyy"
};
